# Blender v2.77 (sub 0) OBJ File: ''
# www.blender.org
mtllib cornice.mtl
o Cornice_Plane
v -3.600000 0.000001 -3.600000
v -3.600000 0.000001 -4.000000
v -4.000000 0.000001 -4.000000
v -4.000000 0.000001 -3.600000
v -3.600000 -0.000001 3.600000
v -4.000000 -0.000001 3.600000
v -3.600000 -0.000001 4.000000
v -4.000000 -0.000001 4.000000
v 3.600000 -0.000001 4.000000
v 3.600000 -0.000001 3.600000
v 3.600000 0.000001 -3.600000
v 3.600000 0.000001 -4.000000
v 4.000000 0.000001 -3.600000
v 4.000000 0.000001 -4.000000
v 4.000000 -0.000001 3.600000
v 4.000000 -0.000001 4.000000
v -3.600000 0.400001 -3.600000
v -3.701660 0.400001 -3.331494
v -3.701660 0.400001 -3.701660
v -3.331494 0.400001 -3.701660
v -3.600000 0.399999 3.600000
v -3.701660 0.399999 3.331494
v -3.331494 0.399999 3.701660
v -3.701660 0.399999 3.701660
v 3.331494 0.399999 3.701660
v 3.600000 0.399999 3.600000
v 3.600000 0.400001 -3.600000
v 3.331494 0.400001 -3.701660
v 3.701660 0.400001 -3.331494
v 3.701660 0.400001 -3.701660
v 3.701660 0.399999 3.331494
v 3.701660 0.399999 3.701660
v 3.830817 0.348234 3.447736
v 3.830817 0.348234 3.830817
v -3.830817 0.348234 3.830817
v -3.830817 0.348234 3.447736
v -3.447736 0.348234 3.830817
v -3.830817 0.348236 -3.447736
v -3.830817 0.348236 -3.830817
v -3.447736 0.348236 -3.830817
v 3.447736 0.348236 -3.830817
v 3.447736 0.348234 3.830817
v 3.830817 0.348236 -3.830817
v 3.830817 0.348236 -3.447736
v 3.950411 0.212075 -3.555370
v 3.950411 0.212073 3.555370
v 3.883408 0.296470 3.495068
v 3.883408 0.296472 -3.495068
v 3.950411 0.212073 3.950411
v 3.555370 0.212073 3.950411
v 3.495068 0.296470 3.883408
v 3.883408 0.296470 3.883408
v -3.950411 0.212073 3.555370
v -3.950411 0.212075 -3.555370
v -3.883408 0.296472 -3.495068
v -3.883408 0.296470 3.495068
v 3.950411 0.212075 -3.950411
v 3.883408 0.296472 -3.883408
v -3.950411 0.212075 -3.950411
v -3.555370 0.212075 -3.950411
v -3.495068 0.296472 -3.883408
v -3.883408 0.296472 -3.883408
v 3.555370 0.212075 -3.950411
v 3.495068 0.296472 -3.883408
v -3.555370 0.212073 3.950411
v -3.495068 0.296470 3.883408
v -3.950411 0.212073 3.950411
v -3.883408 0.296470 3.883408
vn 0.3015 -0.9045 0.3015
vn -0.7835 -0.6214 -0.0000
vn -0.6283 -0.4587 -0.6283
vn 0.0000 -0.6214 -0.7835
vn 0.3015 -0.9045 -0.3015
vn 0.0000 -0.6214 0.7835
vn -0.6283 -0.4587 0.6283
vn -0.3015 -0.9045 -0.3015
vn -0.3015 -0.9045 0.3015
vn 0.7835 -0.6214 -0.0000
vn 0.6283 -0.4587 -0.6283
vn 0.6283 -0.4587 0.6283
vn -0.1438 0.9791 -0.1438
vn 0.3015 0.9045 0.3015
vn 0.0000 0.9819 -0.1894
vn 0.3015 0.9045 -0.3015
vn -0.1894 0.9819 0.0000
vn -0.1438 0.9791 0.1438
vn 0.0000 0.9819 0.1894
vn -0.3015 0.9045 -0.3015
vn -0.3015 0.9045 0.3015
vn 0.1894 0.9819 0.0000
vn 0.1438 0.9791 -0.1438
vn 0.1438 0.9791 0.1438
vn 0.5475 0.8368 0.0000
vn 0.3457 0.8723 0.3457
vn -0.3457 0.8723 0.3457
vn -0.5475 0.8368 0.0000
vn 0.0000 0.8368 0.5475
vn -0.3457 0.8723 -0.3457
vn 0.0000 0.8368 -0.5475
vn 0.3457 0.8723 -0.3457
vn 0.9003 0.4353 0.0000
vn 0.7437 0.6685 0.0000
vn 0.6121 0.5006 0.6121
vn 0.4499 0.7715 0.4499
vn 0.0000 0.6685 0.7437
vn 0.0000 0.4353 0.9003
vn -0.9003 0.4353 0.0000
vn -0.7437 0.6685 0.0000
vn 0.6121 0.5006 -0.6121
vn 0.4499 0.7715 -0.4499
vn -0.6121 0.5006 -0.6121
vn -0.4499 0.7715 -0.4499
vn 0.0000 0.6685 -0.7437
vn 0.0000 0.4353 -0.9003
vn -0.4499 0.7715 0.4499
vn -0.6121 0.5006 0.6121
usemtl None.010
s 1
f 1//1 4//2 3//3 2//4
f 5//5 6//2 4//2 1//1
f 7//6 8//7 6//2 5//5
f 9//6 7//6 5//5 10//8
f 11//9 1//1 2//4 12//4
f 13//10 11//9 12//4 14//11
f 15//10 10//8 11//9 13//10
f 16//12 9//6 10//8 15//10
f 19//13 17//14 20//15
f 21//16 17//14 18//17 22//17
f 22//17 24//18 21//16
f 25//19 26//20 21//16 23//19
f 27//21 28//15 20//15 17//14
f 29//22 30//23 27//21
f 31//22 29//22 27//21 26//20
f 32//24 26//20 25//19
f 10//8 26//20 27//21 11//9
f 33//25 31//22 32//24 34//26
f 1//1 17//14 21//16 5//5
f 35//27 24//18 22//17 36//28
f 37//29 23//19 24//18 35//27
f 38//28 18//17 19//13 39//30
f 40//31 20//15 28//15 41//31
f 42//29 25//19 23//19 37//29
f 41//31 28//15 30//23 43//32
f 11//9 27//21 17//14 1//1
f 39//30 19//13 20//15 40//31
f 43//32 30//23 29//22 44//25
f 5//5 21//16 26//20 10//8
f 36//28 22//17 18//17 38//28
f 34//26 32//24 25//19 42//29
f 44//25 29//22 31//22 33//25
f 45//33 48//34 47//34 46//33
f 49//35 52//36 51//37 50//38
f 53//39 56//40 55//40 54//39
f 57//41 58//42 48//34 45//33
f 59//43 62//44 61//45 60//46
f 63//46 64//45 58//42 57//41
f 50//38 51//37 66//37 65//38
f 60//46 61//45 64//45 63//46
f 54//39 55//40 62//44 59//43
f 65//38 66//37 68//47 67//48
f 67//48 68//47 56//40 53//39
f 46//33 47//34 52//36 49//35
f 48//34 44//25 33//25 47//34
f 52//36 34//26 42//29 51//37
f 56//40 36//28 38//28 55//40
f 58//42 43//32 44//25 48//34
f 62//44 39//30 40//31 61//45
f 64//45 41//31 43//32 58//42
f 51//37 42//29 37//29 66//37
f 61//45 40//31 41//31 64//45
f 55//40 38//28 39//30 62//44
f 66//37 37//29 35//27 68//47
f 68//47 35//27 36//28 56//40
f 47//34 33//25 34//26 52//36
f 15//10 46//33 49//35 16//12
f 8//7 67//48 53//39 6//2
f 7//6 65//38 67//48 8//7
f 4//2 54//39 59//43 3//3
f 2//4 60//46 63//46 12//4
f 9//6 50//38 65//38 7//6
f 12//4 63//46 57//41 14//11
f 3//3 59//43 60//46 2//4
f 14//11 57//41 45//33 13//10
f 6//2 53//39 54//39 4//2
f 16//12 49//35 50//38 9//6
f 13//10 45//33 46//33 15//10
f 23//19 21//16 24//18
f 18//17 17//14 19//13
f 28//15 27//21 30//23
f 31//22 26//20 32//24
