# Blender v2.77 (sub 0) OBJ File: ''
# www.blender.org
mtllib Door.mtl
o Cube_Cube.001
v -2.000000 8.000000 0.500001
v -2.000000 8.000000 -0.499999
v -2.000000 0.000000 -0.500000
v -2.000000 -0.000000 0.500000
v 2.000000 8.000000 -0.499999
v 2.000000 8.000000 0.500001
v 2.000000 -0.000000 0.500000
v 2.000000 0.000000 -0.500000
v -1.500000 -0.000000 0.500000
v -1.500000 7.500000 0.500001
v 1.500000 7.500000 0.500001
v 1.500000 -0.000000 0.500000
v -1.500000 7.500000 -0.499999
v -1.500000 0.000000 -0.500000
v 1.500000 7.500000 -0.499999
v 1.500000 0.000000 -0.500000
v -1.750000 0.000000 -0.250000
v -1.750000 7.750000 -0.249999
v 1.750000 7.750000 -0.249999
v 1.750000 0.000000 -0.250000
v -1.750000 -0.000000 0.750000
v 1.750000 -0.000000 0.750000
v 1.750000 7.750000 0.750001
v -1.750000 7.750000 0.750001
vt 0.5320 0.4962
vt 0.4690 0.4959
vt 0.4668 0.9997
vt 0.5298 1.0000
vt 0.4690 0.4959
vt 0.5320 0.4962
vt 0.5298 1.0000
vt 0.4668 0.9997
vt 0.4679 0.7478
vt 0.5309 0.7481
vt 0.5007 0.4646
vt 0.9730 0.4667
vt 1.0043 0.4983
vt 0.5005 0.4961
vt 0.4689 0.5274
vt -0.0034 0.5253
vt -0.0033 0.4938
vt 0.5005 0.4961
vt 0.4692 0.4644
vt 0.4700 0.2755
vt 0.5017 0.2442
vt 0.5005 0.4961
vt 0.4692 0.4644
vt -0.0031 0.4623
vt -0.0033 0.4938
vt 0.5005 0.4961
vt 0.4689 0.5274
vt 0.4681 0.7163
vt 0.4994 0.7480
vt 0.5005 0.4961
vt 0.5004 0.5276
vt 0.9727 0.5297
vt 1.0043 0.4983
vt 0.5005 0.4961
vt 0.4690 0.4959
vt 0.4692 0.4644
vt 0.5322 0.4647
vt 0.5320 0.4962
vt 0.5319 0.5277
vt 0.5310 0.7166
vt 0.5320 0.4962
vt 0.4690 0.4959
vt 0.4712 0.0236
vt 0.5341 0.0239
vt 0.4690 0.4959
vt 0.5320 0.4962
vt 0.5319 0.5277
vt 0.4689 0.5274
vt 0.5320 0.4962
vt 0.5341 0.0239
vt 0.4712 0.0236
vt 0.4690 0.4959
vt 0.5006 0.4803
vt 0.9887 0.4825
vt 0.9897 0.2621
vt 0.5016 0.2599
vt 0.5006 0.4803
vt 0.5016 0.2599
vt 0.9897 0.2621
vt 0.9887 0.4825
vt 0.4848 0.4960
vt 0.4870 0.0079
vt 0.5500 0.0082
vt 0.5478 0.4963
vt 0.4847 0.5117
vt 0.4825 0.9998
vt 0.5455 1.0001
vt 0.5477 0.5120
vt 0.4847 0.5117
vt 0.4837 0.7322
vt 0.5467 0.7324
vt 0.5477 0.5120
vt 0.4849 0.4803
vt 0.4858 0.2598
vt 0.5488 0.2601
vt 0.5478 0.4805
vn -1.0000 0.0000 0.0000
vn 1.0000 0.0000 0.0000
vn 0.0000 1.0000 0.0000
vn 0.0000 -0.0000 1.0000
vn 0.0000 0.0000 -1.0000
vn 0.0000 -1.0000 -0.0000
usemtl None.007
s 1
f 1/1/1 2/2/1 3/3/1 4/4/1
f 5/5/2 6/6/2 7/7/2 8/8/2
f 6/6/3 5/5/3 2/9/3 1/10/3
f 9/11/4 10/12/4 1/13/4 4/14/4
f 11/15/4 12/16/4 7/17/4 6/18/4
f 10/19/4 11/20/4 6/21/4 1/22/4
f 13/23/5 14/24/5 3/25/5 2/26/5
f 15/27/5 13/28/5 2/29/5 5/30/5
f 16/31/5 15/32/5 5/33/5 8/34/5
f 3/35/6 14/36/6 9/37/6 4/38/6
f 11/39/6 10/40/6 13/28/6 15/27/6
f 9/41/2 14/42/2 13/43/2 10/44/2
f 8/45/6 7/46/6 12/47/6 16/48/6
f 12/49/1 11/50/1 15/51/1 16/52/1
f 17/53/5 18/54/5 19/55/5 20/56/5
f 21/57/4 22/58/4 23/59/4 24/60/4
f 20/61/2 19/62/2 23/63/2 22/64/2
f 18/65/1 17/66/1 21/67/1 24/68/1
f 19/69/3 18/70/3 24/71/3 23/72/3
f 17/73/6 20/74/6 22/75/6 21/76/6
