# Blender v2.77 (sub 0) OBJ File: ''
# www.blender.org
mtllib floor.mtl
o Plane_Plane.003
v -14.300000 -0.000007 12.300000
v -14.300000 0.000007 -12.300000
v 14.300000 0.000007 -12.300000
v 14.300000 -0.000007 12.300000
v 14.300000 0.400007 -12.300000
v -14.300000 0.399993 12.300000
v -14.300000 0.400007 -12.300000
v 14.300000 0.399993 12.300000
vn 0.0000 -1.0000 -0.0000
vn 1.0000 0.0000 0.0000
vn -1.0000 0.0000 0.0000
vn 0.0000 0.0000 -1.0000
vn 0.0000 0.0000 1.0000
usemtl None.005
s 1
f 1//1 2//1 3//1 4//1
f 4//2 3//2 5//2 8//2
f 2//3 1//3 6//3 7//3
f 3//4 2//4 7//4 5//4
f 1//5 4//5 8//5 6//5
