# Blender v2.77 (sub 0) OBJ File: ''
# www.blender.org
mtllib mobile.mtl
o Cube_Cube.001
v -5.000000 2.500000 0.000000
v -2.000000 1.250000 -2.000000
v -2.000000 2.250000 -2.000000
v 5.000000 0.250000 0.000000
v 5.000000 2.500000 0.000000
v 2.000000 1.250000 -2.000000
v 2.000000 2.250000 -2.000000
v -5.000000 0.000000 0.000000
v -5.000000 0.250000 0.000000
v -5.000000 0.000000 -2.000000
v -4.500000 0.000000 0.000000
v -4.500000 0.000000 -2.000000
v -4.500000 0.250000 0.000000
v -4.500000 0.250000 -2.000000
v 4.500000 -0.000000 0.000000
v 4.500000 0.250000 0.000000
v 4.500000 -0.000000 -2.000000
v 4.500000 0.250000 -2.000000
v 5.000000 -0.000000 0.000000
v 5.000000 -0.000000 -2.000000
v -5.000000 2.500000 -2.000000
v -5.000000 0.250000 -2.000000
v 5.000000 2.500000 -2.000000
v 5.000000 0.250000 -2.000000
v -2.000000 1.250000 0.000000
v -2.000000 2.250000 0.000000
v 2.000000 1.250000 0.000000
v 2.000000 2.250000 0.000000
vn -1.0000 0.0000 0.0000
vn 0.0000 1.0000 0.0000
vn 1.0000 0.0000 0.0000
vn 0.0000 0.0000 1.0000
vn 0.0000 -1.0000 -0.0000
vn 0.0000 0.0000 -1.0000
usemtl None
s off
f 1//1 21//1 22//1 9//1
f 6//2 2//2 25//2 27//2
f 23//3 5//3 4//3 24//3
f 5//4 1//4 26//4 28//4
f 24//5 4//5 9//5 22//5
f 5//2 23//2 21//2 1//2
f 8//4 11//4 13//4 9//4
f 8//5 10//5 12//5 11//5
f 10//1 8//1 9//1 22//1
f 22//6 14//6 12//6 10//6
f 14//3 13//3 11//3 12//3
f 16//1 18//1 17//1 15//1
f 18//6 24//6 20//6 17//6
f 24//3 4//3 19//3 20//3
f 4//4 16//4 15//4 19//4
f 15//5 17//5 20//5 19//5
f 9//4 25//4 26//4 1//4
f 3//6 2//6 22//6 21//6
f 7//6 3//6 21//6 23//6
f 6//6 7//6 23//6 24//6
f 2//6 6//6 24//6 22//6
f 3//5 7//5 28//5 26//5
f 7//1 6//1 27//1 28//1
f 2//3 3//3 26//3 25//3
f 9//4 4//4 27//4 25//4
f 4//4 5//4 28//4 27//4
