# Blender v2.77 (sub 0) OBJ File: ''
# www.blender.org
mtllib roof.mtl
o Plane_Plane.004
v -16.000000 -0.000001 14.000000
v -16.000000 0.000001 -14.000000
v 16.000000 0.000001 -14.000000
v 16.000000 -0.000001 14.000000
v 0.000000 5.000000 0.000001
vt 0.0089 0.0108
vt 0.4994 0.4384
vt 0.9883 0.0089
vt 0.0027 0.0121
vt 0.4996 0.4468
vt 0.9964 0.0121
vt 0.0188 0.0156
vt 0.5041 0.5693
vt 0.9884 0.0149
vt 0.0117 0.0099
vt 0.5026 0.5708
vt 0.9934 0.0097
vn 0.0000 0.9417 0.3363
vn 0.0000 0.9417 -0.3363
vn 0.2983 0.9545 0.0000
vn -0.2983 0.9545 0.0000
usemtl None
s 1
f 4/1/1 5/2/1 1/3/1
f 2/4/2 5/5/2 3/6/2
f 3/7/3 5/8/3 4/9/3
f 1/10/4 5/11/4 2/12/4
