# Blender v2.77 (sub 0) OBJ File: ''
# www.blender.org
mtllib wall4.mtl
o Plane.001
v 14.000000 12.000000 0.400001
v -14.000000 12.000000 0.400001
v 14.000000 -0.000000 0.399999
v -14.000000 -0.000000 0.399999
v -14.000000 12.000000 -0.399999
v 14.000000 12.000000 -0.399999
v 14.000000 0.000000 -0.400001
v -14.000000 0.000000 -0.400001
vn 0.0000 0.0000 -1.0000
vn 0.0000 -0.0000 1.0000
vn 1.0000 0.0000 0.0000
vn -1.0000 0.0000 0.0000
vn 0.0000 1.0000 0.0000
vn 0.0000 -1.0000 -0.0000
usemtl None.001
s 1
f 5//1 6//1 7//1 8//1
f 3//2 1//2 2//2 4//2
f 1//3 3//3 7//3 6//3
f 4//4 2//4 5//4 8//4
f 2//5 1//5 6//5 5//5
f 3//6 4//6 8//6 7//6
