# Blender v2.77 (sub 0) OBJ File: ''
# www.blender.org
mtllib window.mtl
o Cube_Cube.000
v 0.250000 2.640000 0.250000
v 0.250000 2.640000 -0.250000
v -0.250000 2.640000 -0.250000
v -0.250000 2.640000 0.250000
v 3.000000 -3.000000 0.500000
v 3.000000 3.000000 0.500000
v 2.640000 2.640000 0.250000
v 2.640000 -2.640000 0.250000
v -0.250000 -2.640000 0.250000
v -0.250000 -2.640000 -0.250000
v 0.250000 -2.640000 -0.250000
v 0.250000 -2.640000 0.250000
v 3.000000 -3.000000 -0.500000
v 2.640000 -2.640000 -0.250000
v 2.640000 2.640000 -0.250000
v 3.000000 3.000000 -0.500000
v -3.000000 -3.000000 -0.500000
v -2.640000 -2.640000 -0.250000
v -3.000000 3.000000 -0.500000
v -2.640000 2.640000 -0.250000
v -3.000000 -3.000000 0.500000
v -2.640000 -2.640000 0.250000
v -2.640000 2.640000 0.250000
v -3.000000 3.000000 0.500000
vt 0.6054 0.5115
vt 0.6054 0.4698
vt 0.5637 0.4698
vt 0.5637 0.5115
vt 0.5010 0.4071
vt 0.5010 0.9082
vt 0.4710 0.8781
vt 0.4710 0.4372
vt 0.5637 0.5115
vt 0.5637 0.4698
vt 0.6054 0.4698
vt 0.6054 0.5115
vt 0.6054 0.5441
vt 0.5637 0.5441
vt 0.5637 0.1031
vt 0.6054 0.1031
vt 0.6380 0.4698
vt 0.6380 0.5115
vt 0.1970 0.5115
vt 0.1970 0.4698
vt 0.5637 0.5441
vt 0.6054 0.5441
vt 0.6054 0.1031
vt 0.5637 0.1031
vt 0.6380 0.5115
vt 0.6380 0.4698
vt 0.1970 0.4698
vt 0.1970 0.5115
vt 0.5010 0.4071
vt 0.4710 0.4372
vt 0.4710 0.8781
vt 0.5010 0.9082
vt 0.5010 0.4071
vt 0.5311 0.4372
vt 0.9720 0.4372
vt 1.0021 0.4071
vt 0.5010 0.9082
vt 0.5311 0.8781
vt 0.5010 0.4071
vt 0.4710 0.3771
vt 0.0300 0.3771
vt -0.0000 0.4071
vt 0.5010 0.4071
vt 1.0021 0.4071
vt 0.9720 0.4372
vt 0.5311 0.4372
vt 0.5311 0.8781
vt 0.5010 0.9082
vt 0.5010 0.4071
vt -0.0000 0.4071
vt 0.0300 0.3771
vt 0.4710 0.3771
vt 0.5010 0.4489
vt 0.5010 0.5324
vt 1.0021 0.5324
vt 1.0021 0.4489
vt 0.5010 0.4489
vt 0.5010 0.5324
vt 1.0021 0.5324
vt 1.0021 0.4489
vt 0.5311 0.4698
vt 0.5311 0.5115
vt 0.9720 0.5115
vt 0.9720 0.4698
vt 0.6380 0.4698
vt 0.6380 0.5115
vt 0.1970 0.5115
vt 0.1970 0.4698
vt 0.5010 0.4489
vt 0.5010 0.5324
vt -0.0000 0.5324
vt -0.0000 0.4489
vt 0.5010 0.4489
vt 0.5010 0.5324
vt -0.0000 0.5324
vt -0.0000 0.4489
vn 0.0000 1.0000 0.0000
vn -0.5704 -0.0000 0.8214
vn 0.0000 -1.0000 0.0000
vn 0.0000 -0.0000 1.0000
vn 1.0000 0.0000 0.0000
vn 0.0000 0.0000 -1.0000
vn -1.0000 0.0000 0.0000
vn -0.5704 0.0000 -0.8214
vn 0.0000 0.5704 -0.8214
vn 0.5704 0.0000 -0.8214
vn 0.0000 -0.5704 -0.8214
vn 0.0000 0.5704 0.8214
vn 0.5704 -0.0000 0.8214
vn 0.0000 -0.5704 0.8214
usemtl None.009
s 1
f 1/1/1 2/2/1 3/3/1 4/4/1
f 5/5/2 6/6/2 7/7/2 8/8/2
f 9/9/3 10/10/3 11/11/3 12/12/3
f 1/13/4 4/14/4 9/15/4 12/16/4
f 2/17/5 1/18/5 12/19/5 11/20/5
f 3/21/6 2/22/6 11/23/6 10/24/6
f 4/25/7 3/26/7 10/27/7 9/28/7
f 13/29/8 14/30/8 15/31/8 16/32/8
f 17/33/9 18/34/9 14/35/9 13/36/9
f 17/33/10 19/37/10 20/38/10 18/34/10
f 16/39/11 15/40/11 20/41/11 19/42/11
f 21/43/12 5/44/12 8/45/12 22/46/12
f 21/43/13 22/46/13 23/47/13 24/48/13
f 6/49/14 24/50/14 23/51/14 7/52/14
f 19/53/1 24/54/1 6/55/1 16/56/1
f 17/57/7 21/58/7 24/59/7 19/60/7
f 14/61/7 8/62/7 7/63/7 15/64/7
f 20/65/5 23/66/5 22/67/5 18/68/5
f 16/69/5 6/70/5 5/71/5 13/72/5
f 10/10/1 18/68/1 22/67/1 9/9/1
f 13/73/3 5/74/3 21/75/3 17/76/3
f 11/11/1 12/12/1 8/62/1 14/61/1
f 4/4/3 23/66/3 20/65/3 3/3/3
f 2/2/3 15/64/3 7/63/3 1/1/3
